<?xml version="1.0" encoding="UTF-8"?>
<svg id="Layer_3" data-name="Layer 3" xmlns="http://www.w3.org/2000/svg" viewBox="0 0 81.71 84.8">
  <circle cx="3.23" cy="3.23" r="3.23"/>
  <path d="M17.11,3.23c0-1.79-1.45-3.23-3.23-3.23s-3.23,1.45-3.23,3.23,1.45,3.23,3.23,3.23,3.23-1.45,3.23-3.23Z"/>
  <path d="M27.76,3.23c0-1.79-1.45-3.23-3.23-3.23s-3.23,1.45-3.23,3.23,1.45,3.23,3.23,3.23,3.23-1.45,3.23-3.23Z"/>
  <path d="M38.4,3.23c0-1.79-1.45-3.23-3.23-3.23s-3.23,1.45-3.23,3.23,1.45,3.23,3.23,3.23,3.23-1.45,3.23-3.23Z"/>
  <path d="M49.05,3.23c0-1.79-1.45-3.23-3.23-3.23s-3.23,1.45-3.23,3.23,1.45,3.23,3.23,3.23,3.23-1.45,3.23-3.23Z"/>
  <circle cx="56.46" cy="3.23" r="3.23"/>
  <path d="M70.34,3.23c0-1.79-1.45-3.23-3.23-3.23s-3.23,1.45-3.23,3.23,1.45,3.23,3.23,3.23,3.23-1.45,3.23-3.23Z"/>
  <path d="M80.98,3.23c0-1.79-1.45-3.23-3.23-3.23s-3.23,1.45-3.23,3.23,1.45,3.23,3.23,3.23,3.23-1.45,3.23-3.23Z"/>
  <path d="M6.47,81.57c0-1.79-1.45-3.23-3.23-3.23S0,79.78,0,81.57s1.45,3.23,3.23,3.23,3.23-1.45,3.23-3.23Z"/>
  <path d="M17.11,81.57c0-1.79-1.45-3.23-3.23-3.23s-3.23,1.45-3.23,3.23,1.45,3.23,3.23,3.23,3.23-1.45,3.23-3.23Z"/>
  <path d="M27.76,81.57c0-1.79-1.45-3.23-3.23-3.23s-3.23,1.45-3.23,3.23,1.45,3.23,3.23,3.23,3.23-1.45,3.23-3.23Z"/>
  <path d="M38.4,81.57c0-1.79-1.45-3.23-3.23-3.23s-3.23,1.45-3.23,3.23,1.45,3.23,3.23,3.23,3.23-1.45,3.23-3.23Z"/>
  <path d="M49.05,81.57c0-1.79-1.45-3.23-3.23-3.23s-3.23,1.45-3.23,3.23,1.45,3.23,3.23,3.23,3.23-1.45,3.23-3.23Z"/>
  <path d="M59.69,81.57c0-1.79-1.45-3.23-3.23-3.23s-3.23,1.45-3.23,3.23,1.45,3.23,3.23,3.23,3.23-1.45,3.23-3.23Z"/>
  <path d="M70.34,81.57c0-1.79-1.45-3.23-3.23-3.23s-3.23,1.45-3.23,3.23,1.45,3.23,3.23,3.23,3.23-1.45,3.23-3.23Z"/>
  <path d="M80.98,81.57c0-1.79-1.45-3.23-3.23-3.23s-3.23,1.45-3.23,3.23,1.45,3.23,3.23,3.23,3.23-1.45,3.23-3.23Z"/>
  <g>
    <polygon points="29.9 67.54 81.71 31.22 81.71 9.6 38.29 9.6 29.9 67.54"/>
    <polygon points="60.54 74.91 69.57 51.32 34.92 74.91 60.54 74.91"/>
    <polygon points="70.7 74.91 81.71 74.91 81.71 45.71 70.7 74.91"/>
    <polygon points="26.76 24.73 .99 52.49 .99 74.91 20.07 74.91 26.76 24.73"/>
    <polygon points="27.46 9.6 .99 9.6 .99 37.86 27.46 9.6"/>
  </g>
</svg>