<?xml version="1.0" encoding="UTF-8"?>
<svg xmlns="http://www.w3.org/2000/svg" baseProfile="tiny" version="1.2" viewBox="0 0 349 123.25">
  <!-- Generator: Adobe Illustrator 28.7.3, SVG Export Plug-In . SVG Version: 1.2.0 Build 164)  -->
  <g>
    <g id="Layer_2">
      <g>
        <path d="M4.16,99.69v16.09h-1.82v-16.09h1.82Z" fill="#b97b2a"/>
        <path d="M10.01,107.36c0-1.19-.02-2.17-.08-3.13h1.63l.1,1.91h.04c.5-1.1,1.68-2.17,3.35-2.17,1.4,0,3.58.96,3.58,4.92v6.9h-1.84v-6.66c0-1.86-.61-3.41-2.35-3.41-1.21,0-2.16.98-2.47,2.15-.08.26-.13.62-.13.98v6.95h-1.84v-8.43Z" fill="#b97b2a"/>
        <path d="M23.89,113.64c.54.41,1.51.84,2.43.84,1.34,0,1.97-.76,1.97-1.72,0-1-.52-1.55-1.89-2.12-1.82-.74-2.68-1.89-2.68-3.27,0-1.86,1.32-3.39,3.5-3.39,1.03,0,1.93.33,2.49.72l-.46,1.53c-.4-.29-1.13-.67-2.07-.67-1.09,0-1.7.72-1.7,1.58,0,.96.61,1.38,1.93,1.96,1.76.76,2.66,1.77,2.66,3.49,0,2.03-1.38,3.49-3.79,3.49-1.11,0-2.14-.33-2.85-.81l.46-1.6Z" fill="#b97b2a"/>
        <path d="M34.95,108c0-1.48-.04-2.67-.08-3.77h1.65l.08,1.98h.04c.75-1.41,1.95-2.24,3.6-2.24,2.45,0,4.29,2.36,4.29,5.87,0,4.16-2.22,6.21-4.61,6.21-1.34,0-2.51-.67-3.12-1.81h-.04v6.28h-1.82v-12.51ZM36.77,111.08c0,.31.04.6.08.86.33,1.46,1.45,2.46,2.77,2.46,1.95,0,3.08-1.82,3.08-4.47,0-2.32-1.07-4.3-3.02-4.3-1.26,0-2.43,1.03-2.79,2.6-.06.26-.13.57-.13.86v1.98Z" fill="#b97b2a"/>
        <path d="M51.44,100.98c.02.72-.44,1.29-1.17,1.29-.65,0-1.11-.57-1.11-1.29s.48-1.31,1.15-1.31,1.13.57,1.13,1.31ZM49.38,115.79v-11.56h1.84v11.56h-1.84Z" fill="#b97b2a"/>
        <path d="M56.8,107.83c0-1.36-.02-2.53-.08-3.61h1.61l.06,2.27h.08c.46-1.55,1.57-2.53,2.81-2.53.21,0,.36.02.52.07v1.98c-.19-.05-.38-.07-.63-.07-1.3,0-2.22,1.12-2.47,2.7-.04.29-.08.62-.08.98v6.16h-1.82v-7.95Z" fill="#b97b2a"/>
        <path d="M73.18,113.01c0,1,.04,1.98.17,2.77h-1.68l-.15-1.46h-.06c-.57.91-1.66,1.72-3.1,1.72-2.05,0-3.1-1.65-3.1-3.32,0-2.79,2.18-4.32,6.1-4.3v-.24c0-.96-.23-2.67-2.3-2.67-.94,0-1.93.33-2.64.86l-.42-1.38c.84-.62,2.05-1.03,3.33-1.03,3.1,0,3.85,2.41,3.85,4.73v4.32ZM71.4,109.89c-2.01-.05-4.29.36-4.29,2.6,0,1.36.8,2.01,1.74,2.01,1.32,0,2.16-.96,2.45-1.93.06-.21.1-.45.1-.67v-2.01Z" fill="#b97b2a"/>
        <path d="M80.8,101.46v2.77h2.64v1.6h-2.64v6.23c0,1.43.36,2.25,1.38,2.25.5,0,.8-.05,1.07-.14l.08,1.58c-.36.17-.92.31-1.63.31-.86,0-1.55-.33-1.99-.91-.52-.62-.71-1.65-.71-3.01v-6.3h-1.57v-1.6h1.57v-2.13l1.8-.64Z" fill="#b97b2a"/>
        <path d="M90.08,100.98c.02.72-.44,1.29-1.17,1.29-.65,0-1.11-.57-1.11-1.29s.48-1.31,1.15-1.31,1.13.57,1.13,1.31ZM88.03,115.79v-11.56h1.84v11.56h-1.84Z" fill="#b97b2a"/>
        <path d="M104.62,109.91c0,4.27-2.6,6.14-5.05,6.14-2.74,0-4.86-2.29-4.86-5.95,0-3.87,2.22-6.14,5.03-6.14s4.88,2.41,4.88,5.95ZM96.57,110.03c0,2.53,1.28,4.44,3.08,4.44s3.08-1.89,3.08-4.49c0-1.96-.86-4.44-3.04-4.44s-3.12,2.29-3.12,4.49Z" fill="#b97b2a"/>
        <path d="M109.46,107.36c0-1.19-.02-2.17-.08-3.13h1.63l.1,1.91h.04c.5-1.1,1.68-2.17,3.35-2.17,1.4,0,3.58.96,3.58,4.92v6.9h-1.84v-6.66c0-1.86-.61-3.41-2.35-3.41-1.21,0-2.16.98-2.47,2.15-.08.26-.13.62-.13.98v6.95h-1.84v-8.43Z" fill="#b97b2a"/>
        <path d="M139.18,97.88v23.88h-1.4v-23.88h1.4Z" fill="#b97b2a"/>
        <path d="M170.64,118.15c-1.91-.57-3.77-1.22-5.41-1.86-.29-.12-.59-.24-.86-.24-3.35-.14-6.22-2.96-6.22-8.14s2.77-8.48,6.58-8.48,6.33,3.39,6.33,8.14c0,4.13-1.68,6.78-4.02,7.71v.1c1.4.41,2.93.79,4.13,1.03l-.52,1.74ZM164.61,114.35c2.89,0,4.53-3.01,4.53-6.69,0-3.22-1.47-6.54-4.46-6.54s-4.59,3.25-4.57,6.73c-.02,3.41,1.63,6.5,4.48,6.5h.02Z" fill="#b97b2a"/>
        <path d="M184.42,112.63c0,1.19.02,2.25.08,3.15h-1.63l-.1-1.89h-.04c-.48.93-1.55,2.15-3.35,2.15-1.59,0-3.5-1-3.5-5.06v-6.76h1.84v6.4c0,2.2.59,3.68,2.26,3.68,1.24,0,2.1-.98,2.43-1.91.1-.31.17-.69.17-1.08v-7.09h1.84v8.41Z" fill="#b97b2a"/>
        <path d="M197.11,113.01c0,1,.04,1.98.17,2.77h-1.68l-.15-1.46h-.06c-.57.91-1.66,1.72-3.1,1.72-2.05,0-3.1-1.65-3.1-3.32,0-2.79,2.18-4.32,6.1-4.3v-.24c0-.96-.23-2.67-2.3-2.67-.94,0-1.93.33-2.64.86l-.42-1.38c.84-.62,2.05-1.03,3.33-1.03,3.1,0,3.85,2.41,3.85,4.73v4.32ZM195.33,109.89c-2.01-.05-4.29.36-4.29,2.6,0,1.36.8,2.01,1.74,2.01,1.32,0,2.16-.96,2.45-1.93.06-.21.11-.45.11-.67v-2.01Z" fill="#b97b2a"/>
        <path d="M202.6,98.83h1.84v16.96h-1.84v-16.96Z" fill="#b97b2a"/>
        <path d="M212.11,100.98c.02.72-.44,1.29-1.17,1.29-.65,0-1.11-.57-1.11-1.29s.48-1.31,1.15-1.31,1.13.57,1.13,1.31ZM210.06,115.79v-11.56h1.84v11.56h-1.84Z" fill="#b97b2a"/>
        <path d="M219.69,101.46v2.77h2.64v1.6h-2.64v6.23c0,1.43.36,2.25,1.38,2.25.5,0,.8-.05,1.07-.14l.08,1.58c-.36.17-.92.31-1.63.31-.86,0-1.55-.33-1.99-.91-.52-.62-.71-1.65-.71-3.01v-6.3h-1.57v-1.6h1.57v-2.13l1.8-.64Z" fill="#b97b2a"/>
        <path d="M227.78,104.23l2.22,6.83c.23.76.48,1.67.65,2.36h.04c.19-.69.4-1.58.65-2.41l2.01-6.78h1.95l-2.77,8.24c-1.32,3.96-2.22,5.99-3.48,7.24-.9.91-1.8,1.27-2.26,1.36l-.46-1.77c.46-.17,1.07-.5,1.61-1.03.5-.45,1.13-1.27,1.55-2.34.08-.21.15-.38.15-.5s-.04-.29-.13-.55l-3.75-10.65h2.01Z" fill="#b97b2a"/>
        <path d="M255.07,97.88v23.88h-1.4v-23.88h1.4Z" fill="#b97b2a"/>
        <path d="M274.88,99.91c1.11-.19,2.43-.33,3.88-.33,2.62,0,4.48.69,5.72,2.01,1.26,1.31,1.99,3.18,1.99,5.78s-.71,4.78-2.03,6.26c-1.32,1.5-3.5,2.32-6.24,2.32-1.3,0-2.39-.07-3.31-.19v-15.83ZM276.71,114.14c.46.1,1.13.12,1.84.12,3.9,0,6.01-2.48,6.01-6.83.02-3.8-1.87-6.21-5.72-6.21-.94,0-1.66.09-2.14.21v12.7Z" fill="#b97b2a"/>
        <path d="M292.39,110.39c.04,2.84,1.63,4.01,3.48,4.01,1.32,0,2.12-.26,2.81-.6l.31,1.5c-.65.33-1.76.74-3.37.74-3.12,0-4.99-2.36-4.99-5.85s1.8-6.23,4.76-6.23c3.31,0,4.19,3.32,4.19,5.44,0,.43-.04.76-.06.98h-7.12ZM297.8,108.88c.02-1.34-.48-3.42-2.56-3.42-1.86,0-2.68,1.96-2.83,3.42h5.38Z" fill="#b97b2a"/>
        <path d="M304.12,113.64c.54.41,1.51.84,2.43.84,1.34,0,1.97-.76,1.97-1.72,0-1-.52-1.55-1.89-2.12-1.82-.74-2.68-1.89-2.68-3.27,0-1.86,1.32-3.39,3.5-3.39,1.03,0,1.93.33,2.49.72l-.46,1.53c-.4-.29-1.13-.67-2.07-.67-1.09,0-1.7.72-1.7,1.58,0,.96.61,1.38,1.93,1.96,1.76.76,2.66,1.77,2.66,3.49,0,2.03-1.38,3.49-3.79,3.49-1.11,0-2.14-.33-2.85-.81l.46-1.6Z" fill="#b97b2a"/>
        <path d="M317.23,100.98c.02.72-.44,1.29-1.17,1.29-.65,0-1.11-.57-1.11-1.29s.48-1.31,1.15-1.31,1.13.57,1.13,1.31ZM315.18,115.79v-11.56h1.84v11.56h-1.84Z" fill="#b97b2a"/>
        <path d="M331.25,114.11c0,2.65-.46,4.27-1.45,5.28-.98,1.05-2.41,1.39-3.69,1.39s-2.56-.33-3.37-.96l.46-1.6c.67.48,1.72.91,2.98.91,1.88,0,3.27-1.12,3.27-4.04v-1.29h-.04c-.57,1.08-1.65,1.93-3.23,1.93-2.51,0-4.32-2.44-4.32-5.64,0-3.92,2.24-6.14,4.57-6.14,1.76,0,2.72,1.05,3.16,2.01h.04l.08-1.74h1.61c-.04.84-.08,1.77-.08,3.18v6.71ZM329.43,108.79c0-.36-.02-.67-.1-.96-.34-1.22-1.24-2.22-2.58-2.22-1.76,0-3.02,1.7-3.02,4.37,0,2.27,1,4.16,3,4.16,1.13,0,2.16-.81,2.56-2.15.1-.36.15-.76.15-1.12v-2.08Z" fill="#b97b2a"/>
        <path d="M336.69,107.36c0-1.19-.02-2.17-.08-3.13h1.63l.1,1.91h.04c.5-1.1,1.68-2.17,3.35-2.17,1.4,0,3.58.96,3.58,4.92v6.9h-1.84v-6.66c0-1.86-.61-3.41-2.35-3.41-1.21,0-2.16.98-2.47,2.15-.08.26-.13.62-.13.98v6.95h-1.84v-8.43Z" fill="#b97b2a"/>
      </g>
      <g>
        <path d="M98.96,14.66v-2.96c2.98.12,5.83.18,8.56.18s5.39-.06,7.92-.18c2.5,6.17,4.79,11.58,6.86,16.24l16.15,36.12,14.53-33.14c3.98-8.99,6.64-15.39,7.98-19.21,3.01.12,5.55.18,7.62.18,1.9,0,4.98-.06,9.24-.18v2.96c-3.38.06-5.43.22-6.15.49-.72.26-1.23.62-1.51,1.09-.37.62-.58,2.11-.64,4.49-.03.62-.1,5-.21,13.14v21.42c0,4.19.07,8.28.21,12.26.08,2.93.29,4.67.61,5.23.33.55.85.96,1.57,1.22.72.26,2.76.42,6.12.49v2.96c-5.73-.28-9.78-.42-12.13-.42-1.9,0-6.1.14-12.6.42v-2.96c3.38-.06,5.43-.22,6.17-.49.74-.26,1.23-.62,1.49-1.09.37-.62.58-2.11.64-4.49.03-.65.1-5.03.21-13.14V21.32l-14.69,33.4c-2.3,5.21-4.1,9.41-5.41,12.58-.94,2.31-2.36,5.98-4.26,11.01h-1.66c-.37-1.17-.71-2.11-1.02-2.82l-2.9-6.71-20.35-45.93v32.42c0,4.2.06,8.28.17,12.26.08,2.93.29,4.67.62,5.23s.85.96,1.58,1.22c.72.26,2.77.42,6.15.49v2.96l-10.26-.32-10.6.32v-2.96c3.33-.06,5.36-.22,6.1-.49.73-.26,1.24-.62,1.53-1.09.34-.62.55-2.11.64-4.49.04-.65.11-5.03.21-13.13v-21.42c0-4.2-.04-8.29-.13-12.3-.09-2.93-.29-4.66-.62-5.21-.33-.54-.85-.94-1.58-1.2-.72-.26-2.77-.42-6.15-.49Z" fill="#006838"/>
        <path d="M218.98,34.24c-2.53,0-5.44-.11-8.73-.32v2.78c2.98.31,4.69.62,5.13.95.44.32.66.78.66,1.37,0,.37-.06.8-.17,1.29-.37,1.42-1.66,5.16-3.87,11.22-2.21,6.06-3.76,10.17-4.63,12.33l-2.25,5.47c-1.11-2.69-2.47-6.2-4.09-10.52l-2.69-7.23c-.99-2.69-2.05-5.93-3.15-9.74-.48-1.53-.72-2.54-.72-3.03,0-.8.37-1.35,1.11-1.65.42-.18,2.1-.38,5.02-.6v-2.64c-3.1.22-6.32.32-9.68.32s-6.92-.11-10.44-.32v2.64c2.02.25,3.31.56,3.9.95.58.38,1.13,1.14,1.64,2.28,1.28,2.89,2.93,7.04,4.94,12.47l6.78,18.23c1.28,3.45,2.37,6.57,3.28,9.34-1.19,3.43-2.54,6.79-4.04,10.1-.99,2.19-1.85,3.74-2.58,4.63-.34.42-.69.78-1.06,1.1,1.5.02,3,.06,4.48.09.79-1.58,1.66-3.57,2.6-5.96l9.84-24.99c4.35-10.37,7.32-17.32,8.92-20.85,1.6-3.53,2.8-5.61,3.6-6.23.79-.62,1.92-.96,3.36-1.02l.43-2.78c-2.5.22-5.02.32-7.58.32Z" fill="#006838"/>
        <path d="M230.47,77.43v-2.64l4-.05c.62-.03,1.1-.15,1.43-.35.33-.2.58-.46.74-.77.31-.62.5-1.71.55-3.28.03-.4.13-4.83.3-13.28v-19.19c0-5.15-.07-10.47-.21-15.96-.12-3.7-.27-5.77-.47-6.2-.14-.31-.37-.52-.69-.65-.43-.21-2.4-.32-5.91-.32v-2.73c6.41-.86,10.87-1.94,13.37-3.24.37-.18.65-.28.85-.28s.35.07.47.21c.11.14.17.33.17.58,0,.22-.03.53-.09.93l-.04,1.53c-.14,5.52-.23,10.22-.26,14.11l-.08,7.22v24.01c.12,8.02.19,12.35.21,13,.03,1.54.2,2.67.51,3.38.11.28.28.52.51.72.23.2.57.36,1.03.48.2.03,1.79.08,4.76.14v2.64c-3.86-.22-7.25-.32-10.18-.32s-6.44.11-10.98.32Z" fill="#006838"/>
        <path d="M291.32,70.25l-1.36,3.33c-1.96,1.33-3.39,2.21-4.3,2.65-1.33.65-2.86,1.2-4.58,1.65-1.72.45-3.53.67-5.43.67-3.75,0-7.14-.85-10.18-2.54-3.04-1.7-5.4-4.24-7.09-7.61-1.69-3.38-2.53-7.34-2.53-11.87,0-3.55.45-6.75,1.34-9.61.89-2.85,1.91-4.96,3.04-6.32.82-.99,2.1-2.12,3.83-3.4,1.73-1.28,3.45-2.29,5.15-3.03,2.24-1.02,4.67-1.53,7.28-1.53,3.18,0,6.05.79,8.62,2.36,2.57,1.57,4.45,3.72,5.64,6.43,1.19,2.72,1.79,5.79,1.79,9.21,0,.87-.07,1.91-.21,3.15-2.04.43-3.87.71-5.48.83-3.06.25-6.12.37-9.18.37h-13.65c.06,4.42.76,8,2.11,10.74,1.35,2.74,3.21,4.76,5.58,6.06,2.37,1.3,4.83,1.95,7.39,1.95,1.73,0,3.46-.31,5.17-.91,1.72-.61,3.84-1.73,6.37-3.36l.68.79ZM264.02,51.33c.79.09,2.3.18,4.51.28,4.23.16,7.14.23,8.73.23,3.78,0,6.26-.08,7.45-.23.03-.74.04-1.31.04-1.71,0-4.88-.91-8.45-2.73-10.74-1.82-2.28-4.24-3.43-7.28-3.43-3.21,0-5.79,1.25-7.75,3.75-1.96,2.5-2.95,6.45-2.98,11.85Z" fill="#006838"/>
        <path d="M296.64,77.43v-2.64l4.07-.05c.6-.03,1.06-.15,1.39-.35.33-.2.58-.45.75-.76.31-.62.51-1.71.6-3.29,0-.4.07-4.83.21-13.29v-5.51c0-2.47-.04-5.12-.13-7.96-.09-1.82-.22-2.9-.41-3.24-.18-.34-.5-.59-.96-.76s-2.3-.24-5.53-.21v-2.64c5.73-.86,9.92-1.99,12.56-3.38.57-.31.95-.46,1.15-.46s.35.08.47.23c.11.15.17.38.17.69,0,.21-.01.46-.04.74-.09,1.11-.17,3.46-.26,7.04l7.92-7.36c2.33-.93,4.53-1.39,6.6-1.39,2.3,0,4.48.51,6.53,1.53,2.06,1.02,3.6,2.3,4.64,3.84,1.04,1.54,1.73,3.49,2.07,5.83.2,1.39.3,5.26.3,11.62v8.19c0,4.01.1,6.74.3,8.19.14.93.36,1.57.66,1.92.3.35.76.58,1.38.67l4.55.14v2.64c-2.78-.22-5.09-.32-6.94-.32-1.59,0-4.23.11-7.92.32.4-7.62.6-12.44.6-14.44v-7.78c0-4.84-.17-8.02-.51-9.54-.48-2.07-1.58-3.73-3.28-5-1.7-1.26-3.76-1.9-6.17-1.9-2.13,0-4.07.55-5.83,1.64-1.76,1.1-3.02,2.36-3.77,3.8-.75,1.43-1.13,3.85-1.13,7.24v5.6c.14,8.02.21,12.36.21,13.01.06,1.54.23,2.67.51,3.38.11.28.28.52.51.72.23.2.59.36,1.07.48.17.03,1.74.08,4.71.14v2.64c-3.46-.22-6.6-.32-9.41-.32-2.38,0-6.27.11-11.67.32Z" fill="#006838"/>
      </g>
    </g>
    <g id="Layer_3">
      <circle cx="5.2" cy="5.4" r="3.23" fill="#b97b2a"/>
      <path d="M19.08,5.4c0-1.79-1.45-3.23-3.23-3.23s-3.23,1.45-3.23,3.23,1.45,3.23,3.23,3.23,3.23-1.45,3.23-3.23Z" fill="#b97b2a"/>
      <path d="M29.73,5.4c0-1.79-1.45-3.23-3.23-3.23s-3.23,1.45-3.23,3.23,1.45,3.23,3.23,3.23,3.23-1.45,3.23-3.23Z" fill="#b97b2a"/>
      <path d="M40.37,5.4c0-1.79-1.45-3.23-3.23-3.23s-3.23,1.45-3.23,3.23,1.45,3.23,3.23,3.23,3.23-1.45,3.23-3.23Z" fill="#b97b2a"/>
      <path d="M51.02,5.4c0-1.79-1.45-3.23-3.23-3.23s-3.23,1.45-3.23,3.23,1.45,3.23,3.23,3.23,3.23-1.45,3.23-3.23Z" fill="#b97b2a"/>
      <circle cx="58.43" cy="5.4" r="3.23" fill="#b97b2a"/>
      <path d="M72.31,5.4c0-1.79-1.45-3.23-3.23-3.23s-3.23,1.45-3.23,3.23,1.45,3.23,3.23,3.23,3.23-1.45,3.23-3.23Z" fill="#b97b2a"/>
      <path d="M82.95,5.4c0-1.79-1.45-3.23-3.23-3.23s-3.23,1.45-3.23,3.23,1.45,3.23,3.23,3.23,3.23-1.45,3.23-3.23Z" fill="#b97b2a"/>
      <path d="M8.44,83.74c0-1.79-1.45-3.23-3.23-3.23s-3.23,1.45-3.23,3.23,1.45,3.23,3.23,3.23,3.23-1.45,3.23-3.23Z" fill="#b97b2a"/>
      <path d="M19.08,83.74c0-1.79-1.45-3.23-3.23-3.23s-3.23,1.45-3.23,3.23,1.45,3.23,3.23,3.23,3.23-1.45,3.23-3.23Z" fill="#b97b2a"/>
      <path d="M29.73,83.74c0-1.79-1.45-3.23-3.23-3.23s-3.23,1.45-3.23,3.23,1.45,3.23,3.23,3.23,3.23-1.45,3.23-3.23Z" fill="#b97b2a"/>
      <path d="M40.37,83.74c0-1.79-1.45-3.23-3.23-3.23s-3.23,1.45-3.23,3.23,1.45,3.23,3.23,3.23,3.23-1.45,3.23-3.23Z" fill="#b97b2a"/>
      <path d="M51.02,83.74c0-1.79-1.45-3.23-3.23-3.23s-3.23,1.45-3.23,3.23,1.45,3.23,3.23,3.23,3.23-1.45,3.23-3.23Z" fill="#b97b2a"/>
      <path d="M61.66,83.74c0-1.79-1.45-3.23-3.23-3.23s-3.23,1.45-3.23,3.23,1.45,3.23,3.23,3.23,3.23-1.45,3.23-3.23Z" fill="#b97b2a"/>
      <path d="M72.31,83.74c0-1.79-1.45-3.23-3.23-3.23s-3.23,1.45-3.23,3.23,1.45,3.23,3.23,3.23,3.23-1.45,3.23-3.23Z" fill="#b97b2a"/>
      <path d="M82.95,83.74c0-1.79-1.45-3.23-3.23-3.23s-3.23,1.45-3.23,3.23,1.45,3.23,3.23,3.23,3.23-1.45,3.23-3.23Z" fill="#b97b2a"/>
      <g>
        <polygon points="31.86 69.71 83.68 33.39 83.68 11.76 40.25 11.76 31.86 69.71" fill="#006838"/>
        <polygon points="62.51 77.08 71.54 53.49 36.89 77.08 62.51 77.08" fill="#006838"/>
        <polygon points="72.67 77.08 83.68 77.08 83.68 47.88 72.67 77.08" fill="#006838"/>
        <polygon points="28.73 26.9 2.96 54.66 2.96 77.08 22.04 77.08 28.73 26.9" fill="#006838"/>
        <polygon points="29.43 11.76 2.96 11.76 2.96 40.03 29.43 11.76" fill="#006838"/>
      </g>
    </g>
  </g>
</svg>